# Blender v2.79 (sub 0) OBJ File: ''
# www.blender.org
mtllib laser.mtl
o Cube_Cube.002
v -1.816717 0.000000 1.156002
v -1.816717 2.000000 1.156002
v -1.816717 0.000000 -1.156002
v -1.816717 2.000000 -1.156002
v 1.816717 0.000000 1.156002
v 1.816717 2.000000 1.156002
v 1.816717 0.000000 -1.156002
v 1.816717 2.000000 -1.156002
v 1.816717 1.000000 -0.545115
v 2.358608 1.000000 -0.545115
v 1.816717 0.893654 -0.534641
v 2.358608 0.893653 -0.534641
v 1.816717 0.791394 -0.503621
v 2.358608 0.791394 -0.503621
v 1.816717 0.697151 -0.453247
v 2.358608 0.697150 -0.453247
v 1.816717 0.614546 -0.385455
v 2.358608 0.614546 -0.385455
v 1.816717 0.546754 -0.302850
v 2.358608 0.546754 -0.302850
v 1.816717 0.496380 -0.208607
v 2.358608 0.496379 -0.208607
v 1.816717 0.465359 -0.106347
v 2.358608 0.465359 -0.106347
v 1.816717 0.454885 -0.000000
v 2.358608 0.454885 -0.000000
v 1.816717 0.465359 0.106346
v 2.358608 0.465359 0.106346
v 1.816717 0.496379 0.208606
v 2.358608 0.496379 0.208606
v 1.816717 0.546754 0.302849
v 2.358608 0.546754 0.302849
v 1.816717 0.614546 0.385454
v 2.358608 0.614546 0.385454
v 1.816717 0.697151 0.453246
v 2.358608 0.697150 0.453246
v 1.816717 0.791394 0.503620
v 2.358608 0.791394 0.503620
v 1.816717 0.893654 0.534641
v 2.358608 0.893654 0.534641
v 1.816717 1.000000 0.545115
v 2.358608 1.000000 0.545115
v 1.816717 1.106347 0.534640
v 2.358608 1.106347 0.534640
v 1.816717 1.208607 0.503620
v 2.358608 1.208607 0.503620
v 1.816717 1.302850 0.453246
v 2.358608 1.302850 0.453246
v 1.816717 1.385455 0.385454
v 2.358608 1.385455 0.385454
v 1.816717 1.453247 0.302849
v 2.358608 1.453247 0.302849
v 1.816717 1.503621 0.208606
v 2.358608 1.503621 0.208606
v 1.816717 1.534641 0.106346
v 2.358608 1.534641 0.106346
v 1.816717 1.545115 -0.000001
v 2.358608 1.545115 -0.000001
v 1.816717 1.534641 -0.106347
v 2.358608 1.534641 -0.106347
v 1.816717 1.503620 -0.208607
v 2.358608 1.503620 -0.208607
v 1.816717 1.453246 -0.302850
v 2.358608 1.453246 -0.302850
v 1.816717 1.385454 -0.385455
v 2.358608 1.385454 -0.385455
v 1.816717 1.302849 -0.453247
v 2.358608 1.302849 -0.453247
v 1.816717 1.208606 -0.503621
v 2.358608 1.208606 -0.503621
v 1.816717 1.106346 -0.534641
v 2.358608 1.106346 -0.534641
vn -1.0000 0.0000 0.0000
vn 0.0000 0.0000 -1.0000
vn 1.0000 0.0000 0.0000
vn 0.0000 0.0000 1.0000
vn 0.0000 -1.0000 0.0000
vn 0.0000 1.0000 0.0000
vn -0.0000 -0.0980 -0.9952
vn -0.0000 -0.2903 -0.9569
vn -0.0000 -0.4714 -0.8819
vn -0.0000 -0.6344 -0.7730
vn -0.0000 -0.7730 -0.6344
vn -0.0000 -0.8819 -0.4714
vn -0.0000 -0.9569 -0.2903
vn -0.0000 -0.9952 -0.0980
vn -0.0000 -0.9952 0.0980
vn 0.0000 -0.9569 0.2903
vn -0.0000 -0.8819 0.4714
vn -0.0000 -0.7730 0.6344
vn -0.0000 -0.6344 0.7730
vn -0.0000 -0.4714 0.8819
vn -0.0000 -0.2903 0.9569
vn 0.0000 -0.0980 0.9952
vn 0.0000 0.0980 0.9952
vn -0.0000 0.2903 0.9569
vn 0.0000 0.4714 0.8819
vn 0.0000 0.6344 0.7730
vn 0.0000 0.7730 0.6344
vn 0.0000 0.8819 0.4714
vn 0.0000 0.9569 0.2903
vn 0.0000 0.9952 0.0980
vn 0.0000 0.9952 -0.0980
vn 0.0000 0.9569 -0.2903
vn 0.0000 0.8819 -0.4714
vn 0.0000 0.7730 -0.6344
vn 0.0000 0.6344 -0.7730
vn 0.0000 0.4714 -0.8819
vn 0.0000 0.2903 -0.9569
vn 0.0000 0.0980 -0.9952
usemtl None
s off
f 1//1 2//1 4//1 3//1
f 3//2 4//2 8//2 7//2
f 7//3 8//3 6//3 5//3
f 5//4 6//4 2//4 1//4
f 3//5 7//5 5//5 1//5
f 8//6 4//6 2//6 6//6
f 9//7 10//7 12//7 11//7
f 11//8 12//8 14//8 13//8
f 13//9 14//9 16//9 15//9
f 15//10 16//10 18//10 17//10
f 17//11 18//11 20//11 19//11
f 19//12 20//12 22//12 21//12
f 21//13 22//13 24//13 23//13
f 23//14 24//14 26//14 25//14
f 25//15 26//15 28//15 27//15
f 27//16 28//16 30//16 29//16
f 29//17 30//17 32//17 31//17
f 31//18 32//18 34//18 33//18
f 33//19 34//19 36//19 35//19
f 35//20 36//20 38//20 37//20
f 37//21 38//21 40//21 39//21
f 39//22 40//22 42//22 41//22
f 41//23 42//23 44//23 43//23
f 43//24 44//24 46//24 45//24
f 45//25 46//25 48//25 47//25
f 47//26 48//26 50//26 49//26
f 49//27 50//27 52//27 51//27
f 51//28 52//28 54//28 53//28
f 53//29 54//29 56//29 55//29
f 55//30 56//30 58//30 57//30
f 57//31 58//31 60//31 59//31
f 59//32 60//32 62//32 61//32
f 61//33 62//33 64//33 63//33
f 63//34 64//34 66//34 65//34
f 65//35 66//35 68//35 67//35
f 67//36 68//36 70//36 69//36
f 12//3 10//3 72//3 70//3 68//3 66//3 64//3 62//3 60//3 58//3 56//3 54//3 52//3 50//3 48//3 46//3 44//3 42//3 40//3 38//3 36//3 34//3 32//3 30//3 28//3 26//3 24//3 22//3 20//3 18//3 16//3 14//3
f 69//37 70//37 72//37 71//37
f 71//38 72//38 10//38 9//38
f 9//1 11//1 13//1 15//1 17//1 19//1 21//1 23//1 25//1 27//1 29//1 31//1 33//1 35//1 37//1 39//1 41//1 43//1 45//1 47//1 49//1 51//1 53//1 55//1 57//1 59//1 61//1 63//1 65//1 67//1 69//1 71//1
