# Blender v2.79 (sub 0) OBJ File: ''
# www.blender.org
mtllib sample.mtl
o Cube_Cube.001
v -0.804297 0.139325 2.241689
v -0.804297 2.139325 2.241689
v 0.804297 0.139325 2.241689
v 0.804297 2.139325 2.241689
v -0.804297 0.139325 3.227902
v -0.804297 2.139325 3.227902
v 0.804297 2.139325 3.227902
v 0.804297 0.139325 3.227902
v 0.804297 4.854538 2.241689
v -0.804297 4.854538 2.241689
v 0.804297 4.854538 3.227902
v -0.804297 4.854538 3.227902
v 0.804297 5.753047 2.241689
v -0.804297 5.753047 2.241689
v 0.804297 5.753047 3.227902
v -0.804297 5.753047 3.227902
v -0.000000 2.308770 1.546634
v -0.000000 4.685093 1.546634
v 0.231799 2.308770 1.569464
v 0.231799 4.685093 1.569464
v 0.454690 2.308770 1.637077
v 0.454690 4.685093 1.637077
v 0.660107 2.308770 1.746875
v 0.660107 4.685093 1.746875
v 0.840157 2.308770 1.894639
v 0.840157 4.685093 1.894639
v 0.987920 2.308770 2.074688
v 0.987920 4.685093 2.074688
v 1.097718 2.308770 2.280106
v 1.097718 4.685093 2.280106
v 1.165331 2.308770 2.502997
v 1.165331 4.685093 2.502997
v 1.188162 2.308770 2.734796
v 1.188162 4.685093 2.734796
v 1.165331 2.308770 2.966594
v 1.165331 4.685093 2.966594
v 1.097718 2.308770 3.189485
v 1.097718 4.685093 3.189485
v 0.987920 2.308770 3.394903
v 0.987920 4.685093 3.394903
v 0.840157 2.308770 3.574953
v 0.840157 4.685093 3.574953
v 0.660107 2.308770 3.722716
v 0.660107 4.685093 3.722716
v 0.454690 2.308770 3.832514
v 0.454690 4.685093 3.832514
v 0.231799 2.308770 3.900127
v 0.231799 4.685093 3.900127
v -0.000000 2.308770 3.922957
v -0.000000 4.685093 3.922957
v -0.231799 2.308770 3.900127
v -0.231799 4.685093 3.900127
v -0.454690 2.308770 3.832513
v -0.454690 4.685093 3.832513
v -0.660108 2.308770 3.722716
v -0.660108 4.685093 3.722716
v -0.840158 2.308770 3.574953
v -0.840158 4.685093 3.574953
v -0.987921 2.308770 3.394902
v -0.987921 4.685093 3.394902
v -1.097719 2.308770 3.189485
v -1.097719 4.685093 3.189485
v -1.165332 2.308770 2.966593
v -1.165332 4.685093 2.966593
v -1.188162 2.308770 2.734794
v -1.188162 4.685093 2.734794
v -1.165331 2.308770 2.502995
v -1.165331 4.685093 2.502995
v -1.097718 2.308770 2.280105
v -1.097718 4.685093 2.280105
v -0.987920 2.308770 2.074687
v -0.987920 4.685093 2.074687
v -0.840156 2.308770 1.894637
v -0.840156 4.685093 1.894637
v -0.660106 2.308770 1.746874
v -0.660106 4.685093 1.746874
v -0.454688 2.308770 1.637077
v -0.454688 4.685093 1.637077
v -0.231797 2.308770 1.569464
v -0.231797 4.685093 1.569464
v -0.288329 2.830391 1.131361
v -0.288329 4.036683 1.131361
v 0.288329 2.830391 1.131361
v 0.288329 4.036683 1.131361
v 0.804297 5.753047 0.331957
v -0.804297 5.753047 0.331957
v 0.804297 4.854538 0.331957
v -0.804297 4.854538 0.331957
v -0.160859 0.139325 2.241689
v -0.160859 2.139325 2.241689
v -0.160859 0.139325 3.227902
v -0.160859 2.139325 3.227902
v -0.160859 4.854538 2.241689
v -0.160859 4.854538 3.227902
v -0.160859 5.753047 2.241689
v -0.160859 5.753047 3.227902
v -0.160859 4.854538 0.331957
v -0.160859 5.753047 0.331957
v 0.225203 0.139325 2.241689
v 0.225203 0.139325 3.227902
v 0.225203 4.854538 0.331957
v 0.225203 2.139325 2.241689
v 0.225203 2.139325 3.227902
v 0.225203 4.854538 2.241689
v 0.225203 4.854538 3.227902
v 0.225203 5.753047 2.241689
v 0.225203 5.753047 3.227902
v 0.225203 5.753047 0.331957
v -0.160859 2.139325 0.331957
v 0.225203 2.139325 0.331957
v -0.804297 0.139325 -2.241689
v -0.804297 2.139325 -2.241689
v -0.804297 0.139325 0.000000
v -0.804297 2.139325 0.000000
v 0.804297 0.139325 -2.241689
v 0.804297 2.139325 -2.241689
v 0.804297 0.139325 0.000000
v 0.804297 2.139325 0.000000
v -0.804297 0.139325 -3.227902
v -0.804297 2.139325 -3.227902
v 0.804297 2.139325 -3.227902
v 0.804297 0.139325 -3.227902
v 0.804297 4.854538 -2.241689
v -0.804297 4.854538 -2.241689
v 0.804297 4.854538 -3.227902
v -0.804297 4.854538 -3.227902
v 0.804297 5.753047 -2.241689
v -0.804297 5.753047 -2.241689
v 0.804297 5.753047 -3.227902
v -0.804297 5.753047 -3.227902
v 0.804297 4.854538 0.000000
v -0.804297 4.854538 0.000000
v 0.804297 5.753047 0.000000
v -0.804297 5.753047 0.000000
v -0.000000 2.308770 -1.546634
v -0.000000 4.685093 -1.546634
v 0.231799 2.308770 -1.569464
v 0.231799 4.685093 -1.569464
v 0.454690 2.308770 -1.637077
v 0.454690 4.685093 -1.637077
v 0.660107 2.308770 -1.746875
v 0.660107 4.685093 -1.746875
v 0.840157 2.308770 -1.894639
v 0.840157 4.685093 -1.894639
v 0.987920 2.308770 -2.074688
v 0.987920 4.685093 -2.074688
v 1.097718 2.308770 -2.280106
v 1.097718 4.685093 -2.280106
v 1.165331 2.308770 -2.502997
v 1.165331 4.685093 -2.502997
v 1.188162 2.308770 -2.734796
v 1.188162 4.685093 -2.734796
v 1.165331 2.308770 -2.966594
v 1.165331 4.685093 -2.966594
v 1.097718 2.308770 -3.189485
v 1.097718 4.685093 -3.189485
v 0.987920 2.308770 -3.394903
v 0.987920 4.685093 -3.394903
v 0.840157 2.308770 -3.574953
v 0.840157 4.685093 -3.574953
v 0.660107 2.308770 -3.722716
v 0.660107 4.685093 -3.722716
v 0.454690 2.308770 -3.832514
v 0.454690 4.685093 -3.832514
v 0.231799 2.308770 -3.900127
v 0.231799 4.685093 -3.900127
v -0.000000 2.308770 -3.922957
v -0.000000 4.685093 -3.922957
v -0.231799 2.308770 -3.900127
v -0.231799 4.685093 -3.900127
v -0.454690 2.308770 -3.832513
v -0.454690 4.685093 -3.832513
v -0.660108 2.308770 -3.722716
v -0.660108 4.685093 -3.722716
v -0.840158 2.308770 -3.574953
v -0.840158 4.685093 -3.574953
v -0.987921 2.308770 -3.394902
v -0.987921 4.685093 -3.394902
v -1.097719 2.308770 -3.189485
v -1.097719 4.685093 -3.189485
v -1.165332 2.308770 -2.966593
v -1.165332 4.685093 -2.966593
v -1.188162 2.308770 -2.734794
v -1.188162 4.685093 -2.734794
v -1.165331 2.308770 -2.502995
v -1.165331 4.685093 -2.502995
v -1.097718 2.308770 -2.280105
v -1.097718 4.685093 -2.280105
v -0.987920 2.308770 -2.074687
v -0.987920 4.685093 -2.074687
v -0.840156 2.308770 -1.894637
v -0.840156 4.685093 -1.894637
v -0.660106 2.308770 -1.746874
v -0.660106 4.685093 -1.746874
v -0.454688 2.308770 -1.637077
v -0.454688 4.685093 -1.637077
v -0.231797 2.308770 -1.569464
v -0.231797 4.685093 -1.569464
v -0.288329 2.830391 -1.131361
v -0.288329 4.036683 -1.131361
v -0.288329 2.830391 0.000000
v -0.288329 4.036683 0.000000
v 0.288329 2.830391 -1.131361
v 0.288329 4.036683 -1.131361
v 0.288329 2.830391 0.000000
v 0.288329 4.036683 0.000000
v 0.804297 5.753047 -0.331957
v -0.804297 5.753047 -0.331957
v 0.804297 4.854538 -0.331957
v -0.804297 4.854538 -0.331957
v -0.160859 0.139325 0.000000
v -0.160859 2.139325 0.000000
v -0.160859 0.139325 -2.241689
v -0.160859 2.139325 -2.241689
v -0.160859 0.139325 -3.227902
v -0.160859 2.139325 -3.227902
v -0.160859 4.854538 -2.241689
v -0.160859 4.854538 -3.227902
v -0.160859 5.753047 -2.241689
v -0.160859 5.753047 -3.227902
v -0.160859 4.854538 0.000000
v -0.160859 5.753047 0.000000
v -0.160859 4.854538 -0.331957
v -0.160859 5.753047 -0.331957
v 0.225203 2.139325 0.000000
v 0.225203 0.139325 -2.241689
v 0.225203 0.139325 -3.227902
v 0.225203 4.854538 -0.331957
v 0.225203 0.139325 0.000000
v 0.225203 2.139325 -2.241689
v 0.225203 2.139325 -3.227902
v 0.225203 4.854538 -2.241689
v 0.225203 4.854538 -3.227902
v 0.225203 5.753047 -2.241689
v 0.225203 5.753047 -3.227902
v 0.225203 4.854538 0.000000
v 0.225203 5.753047 0.000000
v 0.225203 5.753047 -0.331957
v 0.225203 2.139325 0.000000
v -0.160859 2.139325 0.000000
v -0.160859 2.139325 -0.331957
v 0.225203 2.139325 -0.331957
vn -1.0000 0.0000 0.0000
vn 1.0000 0.0000 0.0000
vn 0.0000 -1.0000 0.0000
vn 0.0000 1.0000 0.0000
vn 0.0000 0.0000 1.0000
vn 0.0000 0.0000 -1.0000
vn 0.0980 0.0000 -0.9952
vn 0.2903 0.0000 -0.9569
vn 0.4714 0.0000 -0.8819
vn 0.6344 0.0000 -0.7730
vn 0.7730 0.0000 -0.6344
vn 0.8819 0.0000 -0.4714
vn 0.9569 0.0000 -0.2903
vn 0.9952 0.0000 -0.0980
vn 0.9952 0.0000 0.0980
vn 0.9569 0.0000 0.2903
vn 0.8819 0.0000 0.4714
vn 0.7730 0.0000 0.6344
vn 0.6344 0.0000 0.7730
vn 0.4714 0.0000 0.8819
vn 0.2903 0.0000 0.9569
vn 0.0980 0.0000 0.9952
vn -0.0980 0.0000 0.9952
vn -0.2903 0.0000 0.9569
vn -0.4714 0.0000 0.8819
vn -0.6344 0.0000 0.7730
vn -0.7730 0.0000 0.6344
vn -0.8819 0.0000 0.4714
vn -0.9569 0.0000 0.2903
vn -0.9952 0.0000 0.0980
vn -0.9952 0.0000 -0.0980
vn -0.9569 0.0000 -0.2903
vn -0.8819 0.0000 -0.4714
vn -0.7730 0.0000 -0.6344
vn -0.6344 0.0000 -0.7730
vn -0.4714 0.0000 -0.8819
vn -0.2903 0.0000 -0.9569
vn -0.0980 0.0000 -0.9952
usemtl None
s off
f 1//1 2//1 114//1 113//1
f 117//2 118//2 4//2 3//2
f 99//3 3//3 8//3 100//3
f 229//3 117//3 3//3 99//3
f 212//4 114//4 2//4 90//4
f 91//5 92//5 6//5 5//5
f 7//2 4//2 9//2 11//2
f 3//2 4//2 7//2 8//2
f 2//1 1//1 5//1 6//1
f 105//5 11//5 15//5 107//5
f 103//5 7//5 11//5 105//5
f 90//6 2//6 10//6 93//6
f 2//1 6//1 12//1 10//1
f 95//4 14//4 16//4 96//4
f 10//1 12//1 16//1 14//1
f 108//4 85//4 133//4 237//4
f 11//2 9//2 13//2 15//2
f 85//2 87//2 131//2 133//2
f 97//3 88//3 132//3 221//3
f 88//1 86//1 134//1 132//1
f 17//7 18//7 20//7 19//7
f 19//8 20//8 22//8 21//8
f 21//9 22//9 24//9 23//9
f 23//10 24//10 26//10 25//10
f 25//11 26//11 28//11 27//11
f 27//12 28//12 30//12 29//12
f 29//13 30//13 32//13 31//13
f 31//14 32//14 34//14 33//14
f 33//15 34//15 36//15 35//15
f 35//16 36//16 38//16 37//16
f 37//17 38//17 40//17 39//17
f 39//18 40//18 42//18 41//18
f 41//19 42//19 44//19 43//19
f 43//20 44//20 46//20 45//20
f 45//21 46//21 48//21 47//21
f 47//22 48//22 50//22 49//22
f 49//23 50//23 52//23 51//23
f 51//24 52//24 54//24 53//24
f 53//25 54//25 56//25 55//25
f 55//26 56//26 58//26 57//26
f 57//27 58//27 60//27 59//27
f 59//28 60//28 62//28 61//28
f 61//29 62//29 64//29 63//29
f 63//30 64//30 66//30 65//30
f 65//31 66//31 68//31 67//31
f 67//32 68//32 70//32 69//32
f 69//33 70//33 72//33 71//33
f 71//34 72//34 74//34 73//34
f 73//35 74//35 76//35 75//35
f 75//36 76//36 78//36 77//36
f 20//4 18//4 80//4 78//4 76//4 74//4 72//4 70//4 68//4 66//4 64//4 62//4 60//4 58//4 56//4 54//4 52//4 50//4 48//4 46//4 44//4 42//4 40//4 38//4 36//4 34//4 32//4 30//4 28//4 26//4 24//4 22//4
f 77//37 78//37 80//37 79//37
f 79//38 80//38 18//38 17//38
f 17//3 19//3 21//3 23//3 25//3 27//3 29//3 31//3 33//3 35//3 37//3 39//3 41//3 43//3 45//3 47//3 49//3 51//3 53//3 55//3 57//3 59//3 61//3 63//3 65//3 67//3 69//3 71//3 73//3 75//3 77//3 79//3
f 81//1 82//1 202//1 201//1
f 205//2 206//2 84//2 83//2
f 83//5 84//5 82//5 81//5
f 201//3 205//3 83//3 81//3
f 206//4 202//4 82//4 84//4
f 10//1 14//1 86//1 88//1
f 93//3 10//3 88//3 97//3
f 13//2 9//2 87//2 85//2
f 106//4 13//4 85//4 108//4
f 14//4 95//4 98//4 86//4
f 104//3 93//3 97//3 101//3
f 101//5 97//5 109//5 110//5
f 86//4 98//4 222//4 134//4
f 106//4 95//4 96//4 107//4
f 102//6 90//6 93//6 104//6
f 6//5 92//5 94//5 12//5
f 12//5 94//5 96//5 16//5
f 100//5 103//5 92//5 91//5
f 225//4 212//4 90//4 102//4
f 113//3 211//3 89//3 1//3
f 1//3 89//3 91//3 5//3
f 118//4 225//4 102//4 4//4
f 8//5 7//5 103//5 100//5
f 4//6 102//6 104//6 9//6
f 13//4 106//4 107//4 15//4
f 87//3 101//3 236//3 131//3
f 9//3 104//3 101//3 87//3
f 95//4 106//4 108//4 98//4
f 98//4 108//4 237//4 222//4
f 92//5 103//5 105//5 94//5
f 94//5 105//5 107//5 96//5
f 211//3 229//3 99//3 89//3
f 89//3 99//3 100//3 91//3
f 110//3 109//3 240//3 239//3
f 97//1 221//1 240//1 109//1
f 236//2 101//2 110//2 239//2
f 111//1 113//1 114//1 112//1
f 229//5 117//5 118//5 225//5
f 117//2 115//2 116//2 118//2
f 226//3 227//3 122//3 115//3
f 229//3 226//3 115//3 117//3
f 212//4 214//4 112//4 114//4
f 215//6 119//6 120//6 216//6
f 121//2 125//2 123//2 116//2
f 115//2 122//2 121//2 116//2
f 112//1 120//1 119//1 111//1
f 233//6 235//6 129//6 125//6
f 231//6 233//6 125//6 121//6
f 214//5 217//5 124//5 112//5
f 112//1 124//1 126//1 120//1
f 219//4 220//4 130//4 128//4
f 124//1 128//1 130//1 126//1
f 238//4 237//4 133//4 207//4
f 125//2 129//2 127//2 123//2
f 221//5 222//5 134//5 132//5
f 207//2 133//2 131//2 209//2
f 223//3 221//3 132//3 210//3
f 210//1 132//1 134//1 208//1
f 135//22 137//22 138//22 136//22
f 137//21 139//21 140//21 138//21
f 139//20 141//20 142//20 140//20
f 141//19 143//19 144//19 142//19
f 143//18 145//18 146//18 144//18
f 145//17 147//17 148//17 146//17
f 147//16 149//16 150//16 148//16
f 149//15 151//15 152//15 150//15
f 151//14 153//14 154//14 152//14
f 153//13 155//13 156//13 154//13
f 155//12 157//12 158//12 156//12
f 157//11 159//11 160//11 158//11
f 159//10 161//10 162//10 160//10
f 161//9 163//9 164//9 162//9
f 163//8 165//8 166//8 164//8
f 165//7 167//7 168//7 166//7
f 167//38 169//38 170//38 168//38
f 169//37 171//37 172//37 170//37
f 171//36 173//36 174//36 172//36
f 173//35 175//35 176//35 174//35
f 175//34 177//34 178//34 176//34
f 177//33 179//33 180//33 178//33
f 179//32 181//32 182//32 180//32
f 181//31 183//31 184//31 182//31
f 183//30 185//30 186//30 184//30
f 185//29 187//29 188//29 186//29
f 187//28 189//28 190//28 188//28
f 189//27 191//27 192//27 190//27
f 191//26 193//26 194//26 192//26
f 193//25 195//25 196//25 194//25
f 138//4 140//4 142//4 144//4 146//4 148//4 150//4 152//4 154//4 156//4 158//4 160//4 162//4 164//4 166//4 168//4 170//4 172//4 174//4 176//4 178//4 180//4 182//4 184//4 186//4 188//4 190//4 192//4 194//4 196//4 198//4 136//4
f 195//24 197//24 198//24 196//24
f 197//23 135//23 136//23 198//23
f 135//3 197//3 195//3 193//3 191//3 189//3 187//3 185//3 183//3 181//3 179//3 177//3 175//3 173//3 171//3 169//3 167//3 165//3 163//3 161//3 159//3 157//3 155//3 153//3 151//3 149//3 147//3 145//3 143//3 141//3 139//3 137//3
f 199//1 201//1 202//1 200//1
f 201//5 205//5 206//5 202//5
f 205//2 203//2 204//2 206//2
f 203//6 199//6 200//6 204//6
f 201//3 199//3 203//3 205//3
f 206//4 204//4 200//4 202//4
f 124//1 210//1 208//1 128//1
f 217//3 223//3 210//3 124//3
f 127//2 207//2 209//2 123//2
f 234//4 238//4 207//4 127//4
f 128//4 208//4 224//4 219//4
f 232//3 228//3 223//3 217//3
f 228//6 242//6 241//6 223//6
f 236//5 237//5 222//5 221//5
f 208//4 134//4 222//4 224//4
f 234//4 235//4 220//4 219//4
f 230//5 232//5 217//5 214//5
f 120//6 126//6 218//6 216//6
f 126//6 130//6 220//6 218//6
f 227//6 215//6 216//6 231//6
f 225//4 230//4 214//4 212//4
f 113//3 111//3 213//3 211//3
f 111//3 119//3 215//3 213//3
f 113//5 211//5 212//5 114//5
f 118//4 116//4 230//4 225//4
f 122//6 227//6 231//6 121//6
f 116//5 123//5 232//5 230//5
f 127//4 129//4 235//4 234//4
f 131//5 133//5 237//5 236//5
f 209//3 131//3 236//3 228//3
f 123//3 209//3 228//3 232//3
f 219//4 224//4 238//4 234//4
f 224//4 222//4 237//4 238//4
f 216//6 218//6 233//6 231//6
f 218//6 220//6 235//6 233//6
f 211//3 213//3 226//3 229//3
f 213//3 215//3 227//3 226//3
f 211//5 229//5 225//5 212//5
f 242//3 239//3 240//3 241//3
f 223//1 241//1 240//1 221//1
f 236//2 239//2 242//2 228//2
f 221//5 240//5 239//5 236//5
